<svg width="32" height="32" viewBox="0 0 32 32" fill="none" xmlns="http://www.w3.org/2000/svg">
<path d="M2.5 16.5C2.5 16.1022 2.65804 15.7206 2.93934 15.4393C3.22064 15.158 3.60218 15 4 15H7C7.39782 15 7.77936 15.158 8.06066 15.4393C8.34196 15.7206 8.5 16.1022 8.5 16.5V21C8.5 21.3978 8.34196 21.7794 8.06066 22.0607C7.77936 22.342 7.39782 22.5 7 22.5H4C3.60218 22.5 3.22064 22.342 2.93934 22.0607C2.65804 21.7794 2.5 21.3978 2.5 21V16.5ZM10 10.5C10 10.1022 10.158 9.72064 10.4393 9.43934C10.7206 9.15804 11.1022 9 11.5 9H14.5C14.8978 9 15.2794 9.15804 15.5607 9.43934C15.842 9.72064 16 10.1022 16 10.5V21C16 21.3978 15.842 21.7794 15.5607 22.0607C15.2794 22.342 14.8978 22.5 14.5 22.5H11.5C11.1022 22.5 10.7206 22.342 10.4393 22.0607C10.158 21.7794 10 21.3978 10 21V10.5ZM17.5 3C17.5 2.60218 17.658 2.22064 17.9393 1.93934C18.2206 1.65804 18.6022 1.5 19 1.5H22C22.3978 1.5 22.7794 1.65804 23.0607 1.93934C23.342 2.22064 23.5 2.60218 23.5 3V21C23.5 21.3978 23.342 21.7794 23.0607 22.0607C22.7794 22.342 22.3978 22.5 22 22.5H19C18.6022 22.5 18.2206 22.342 17.9393 22.0607C17.658 21.7794 17.5 21.3978 17.5 21V3Z" fill="#EBF8FF"/>
</svg>
