<svg width="600" height="522" viewBox="0 0 600 522" fill="none" xmlns="http://www.w3.org/2000/svg">
<g clip-path="url(#clip0_48_2)">
<path d="M600 253.185C600 369.129 497.987 466.864 358.788 496.869C336.181 501.73 313.215 504.73 290.119 505.841C288.995 505.897 287.872 505.953 286.74 505.993C280.73 506.242 274.673 506.368 268.572 506.371C257.963 506.371 247.48 505.993 237.122 505.239C231.377 504.83 225.679 504.308 220.029 503.674C165.083 497.511 114.518 481.052 71.8097 456.937C66.4732 453.928 61.2624 450.798 56.1772 447.548C46.8656 441.621 37.8758 435.202 29.2456 428.321C-27.8032 382.851 19.7603 285.798 49.4924 224.697C129.741 59.7854 85.5324 0 268.572 0C451.612 0 600 113.352 600 253.185Z" fill="#63CAFD"/>
<path d="M468.824 104.378C411.934 103.358 411.943 18.8126 468.826 17.8008C525.714 18.8209 525.705 103.366 468.824 104.378Z" fill="white"/>
<path d="M361.236 230.369C304.346 229.348 304.355 144.803 361.238 143.792C418.127 144.812 418.118 229.357 361.236 230.369Z" fill="white"/>
<path d="M473.463 358.305C416.572 357.285 416.581 272.74 473.464 271.728C530.353 272.748 530.344 357.293 473.463 358.305Z" fill="white"/>
<path d="M468.824 104.378C411.934 103.358 411.943 18.8126 468.826 17.8008C525.714 18.8209 525.705 103.366 468.824 104.378ZM468.824 20.4242C415.382 21.3828 415.39 100.803 468.826 101.754C522.266 100.796 522.258 21.3749 468.824 20.4242Z" fill="#E6E6E6"/>
<path d="M219.829 503.072C219.701 502.664 219.612 502.245 219.564 501.82L203.041 407.608C203.016 407.366 202.979 407.125 202.929 406.886C202.579 405.169 201.707 403.601 200.433 402.397C199.159 401.194 197.545 400.413 195.81 400.161L101.59 400.57C99.8074 400.303 97.9859 400.613 96.3919 401.455C94.7979 402.296 93.515 403.626 92.7306 405.249C91.1981 408.443 89.6975 411.682 88.2287 414.967C82.2822 428.2 76.8092 442.19 71.8098 456.937C114.518 481.052 165.083 497.511 220.029 503.674L219.829 503.072Z" fill="#2F2E41"/>
<path d="M311.804 250.961C311.572 251.98 311.421 253.015 311.352 254.058L230.257 300.841L210.545 289.494L189.532 317.003L222.475 340.483C225.136 342.38 228.341 343.362 231.608 343.283C234.875 343.203 238.028 342.066 240.594 340.042L324.218 274.071C327.992 275.468 332.101 275.683 336 274.687C339.899 273.691 343.403 271.532 346.045 268.496C348.687 265.461 350.342 261.693 350.79 257.694C351.238 253.695 350.458 249.654 348.554 246.109C346.65 242.564 343.711 239.683 340.13 237.848C336.548 236.014 332.492 235.314 328.503 235.841C324.513 236.367 320.779 238.096 317.796 240.797C314.813 243.498 312.723 247.044 311.804 250.961Z" fill="#FFB8B8"/>
<path d="M229.146 296.167C228.9 294.97 228.399 293.84 227.678 292.854C226.956 291.869 226.031 291.049 224.965 290.453L187.753 269.644C182.809 265.829 176.553 264.13 170.357 264.92C164.162 265.71 158.533 268.924 154.703 273.858C150.874 278.792 149.157 285.043 149.93 291.241C150.702 297.438 153.901 303.077 158.824 306.92L188.492 337.727C189.338 338.607 190.365 339.294 191.501 339.741C192.637 340.188 193.856 340.386 195.075 340.319C196.295 340.253 197.485 339.925 198.566 339.357C199.647 338.789 200.593 337.996 201.34 337.029L207.117 329.534L209.091 326.982L227.549 303.06C228.223 302.187 228.716 301.188 229.001 300.123C229.362 298.834 229.412 297.478 229.146 296.167Z" fill="#EF0B72"/>
<path d="M175.267 232.717C193.375 214.61 193.375 185.252 175.267 167.145C157.16 149.038 127.802 149.038 109.695 167.145C91.5879 185.252 91.5879 214.61 109.695 232.717C127.802 250.824 157.16 250.824 175.267 232.717Z" fill="#FFB8B8"/>
<path d="M201.107 375.428C202.969 372.644 214.805 353.85 210.327 331.821C209.998 330.188 209.586 328.573 209.092 326.982C206.981 320.352 203.611 314.191 199.165 308.838C199.221 307.361 199.205 305.909 199.117 304.464V304.456C198.462 294.42 194.204 284.958 187.126 277.812C180.048 270.666 170.627 266.318 160.597 265.568L108.74 261.628C102.066 261.083 95.3586 262.169 89.1965 264.792C83.0345 267.414 77.602 271.495 73.3666 276.682C72.3912 277.865 71.4778 279.097 70.63 280.374L70.627 280.374L70.6244 280.376L70.6227 280.379L70.6222 280.382C67.3524 285.316 65.1828 290.897 64.2606 296.744C63.3384 302.592 63.6852 308.569 65.2775 314.271L65.7191 316.213L71.248 340.456L80.4926 381.022L88.2287 414.967L89.0473 418.546C89.4788 420.421 90.5322 422.094 92.036 423.293C93.5398 424.492 95.4054 425.147 97.3288 425.151C97.7913 425.153 98.2532 425.115 98.7093 425.038L199.052 408.587C200.469 408.361 201.803 407.775 202.929 406.886C203.604 406.348 204.197 405.712 204.686 405C205.34 404.055 205.793 402.985 206.016 401.857C206.24 400.729 206.229 399.568 205.986 398.444L201.107 375.428Z" fill="#EF0B72"/>
<path d="M3.62835 512.35C1.92639 509.922 0.777411 507.151 0.262351 504.231C-0.252709 501.311 -0.121325 498.314 0.647249 495.451C1.41582 492.587 2.80289 489.927 4.71076 487.658C6.61862 485.388 9.00085 483.565 11.6897 482.316L68.8214 306.661L101.931 322.371L39.4192 493.404C41.2183 498.06 41.2469 503.215 39.4996 507.891C37.7523 512.566 34.3505 516.439 29.9388 518.774C25.5271 521.109 20.412 521.745 15.5629 520.561C10.7137 519.377 6.46729 516.455 3.62835 512.35Z" fill="#FFB8B8"/>
<path d="M101.542 265.166C95.4213 263.325 88.8305 263.87 83.0954 266.691C77.3603 269.513 72.9065 274.401 70.63 280.374L70.6269 280.374L70.6243 280.376L70.6226 280.379L70.6221 280.382C70.4133 280.919 70.2209 281.481 70.0524 282.043L65.2131 292.307L50.592 323.323C50.0331 324.505 49.7357 325.793 49.7204 327.1C49.705 328.407 49.9719 329.702 50.5029 330.897C51.0338 332.092 51.8164 333.158 52.797 334.022C53.7777 334.886 54.9334 335.529 56.1851 335.906L59.0342 336.765L71.2479 340.456L92.9233 347.004L100.146 349.187C101.397 349.565 102.715 349.669 104.01 349.492C105.305 349.314 106.547 348.86 107.651 348.159C108.754 347.458 109.694 346.528 110.405 345.431C111.117 344.335 111.583 343.097 111.774 341.804L118.451 296.512C120.347 290.113 119.634 283.223 116.465 277.35C113.296 271.476 107.931 267.095 101.542 265.166Z" fill="#EF0B72"/>
<path d="M185.057 183.07C168.535 197.523 143.171 200.879 123.459 191.22C132.314 201.725 149.131 253.579 149.131 253.579C149.131 253.579 101.648 248.589 94.9393 247.155C55.316 238.682 69.7187 136.065 111.94 136.583C119.091 136.67 125.342 137.535 130.102 142.873C133.261 134.017 143.306 128.801 152.684 129.476C162.062 130.152 170.542 135.784 176.575 142.996C181.389 148.834 184.864 155.657 186.754 162.984C188.645 170.311 188.905 177.964 187.517 185.402L185.057 183.07Z" fill="#2F2E41"/>
<path d="M361.237 230.369C304.346 229.348 304.355 144.803 361.238 143.792C418.127 144.812 418.118 229.357 361.237 230.369ZM361.237 146.415C307.794 147.374 307.803 226.794 361.238 227.745C414.679 226.786 414.67 147.366 361.237 146.415Z" fill="#E6E6E6"/>
<path d="M473.463 358.305C416.572 357.285 416.581 272.74 473.464 271.728C530.353 272.748 530.344 357.293 473.463 358.305ZM473.463 274.352C420.02 275.31 420.029 354.731 473.464 355.682C526.905 354.723 526.897 275.302 473.463 274.352Z" fill="#E6E6E6"/>
<path d="M478.07 38.8986C467.398 39.2052 446.644 35.3906 446.634 51.8443C446.94 62.516 443.125 83.2692 459.579 83.2797C470.251 82.9737 491.004 86.7883 491.014 70.3346C490.708 59.6629 494.523 38.9097 478.07 38.8986Z" fill="#012232"/>
<path d="M480.844 51.8436C477.253 51.8887 477.265 46.2468 480.856 46.3078C484.447 46.2633 484.435 51.904 480.844 51.8436Z" fill="white"/>
<path d="M468.824 53.6921C478.422 53.5511 478.422 68.6287 468.823 68.4867C459.226 68.626 459.226 53.5514 468.824 53.6921ZM468.824 49.994C454.429 49.7837 454.427 72.3968 468.825 72.1848C483.221 72.3951 483.219 49.782 468.824 49.994Z" fill="white"/>
<path d="M395.316 322.315C395.056 322.323 394.801 322.253 394.581 322.116C394.362 321.978 394.188 321.778 394.083 321.541C393.977 321.305 393.944 321.042 393.987 320.787C394.031 320.531 394.149 320.294 394.328 320.106L398.695 315.492C398.831 315.347 398.905 315.153 398.9 314.954C398.894 314.755 398.81 314.566 398.665 314.429L394.026 310.038C393.897 309.917 393.794 309.771 393.722 309.61C393.65 309.449 393.61 309.275 393.605 309.098C393.601 308.922 393.631 308.746 393.694 308.581C393.757 308.416 393.852 308.265 393.973 308.136C394.218 307.879 394.554 307.729 394.909 307.718C395.264 307.707 395.609 307.836 395.869 308.078L402.11 313.911C402.234 314.026 402.333 314.164 402.402 314.318C402.471 314.471 402.509 314.637 402.514 314.805C402.518 314.974 402.489 315.141 402.429 315.298C402.368 315.456 402.277 315.599 402.16 315.721L396.225 321.913C395.987 322.162 395.66 322.307 395.316 322.315Z" fill="#CCCCCC"/>
<path d="M390.546 315.599C390.404 315.731 390.219 315.806 390.025 315.811L375.472 316.212C375.367 316.215 375.262 316.197 375.163 316.16C375.065 316.122 374.975 316.066 374.898 315.993C374.821 315.921 374.76 315.834 374.717 315.738C374.674 315.641 374.65 315.538 374.647 315.432C374.644 315.327 374.662 315.222 374.7 315.123C374.737 315.025 374.794 314.935 374.867 314.858C374.939 314.782 375.026 314.72 375.122 314.677C375.219 314.634 375.323 314.611 375.428 314.608L389.981 314.207C390.144 314.202 390.305 314.248 390.442 314.337C390.579 314.426 390.685 314.556 390.747 314.707C390.808 314.858 390.822 315.025 390.786 315.185C390.75 315.344 390.667 315.489 390.546 315.599Z" fill="#CCCCCC"/>
<path d="M282.967 194.379C282.708 194.386 282.452 194.317 282.233 194.179C282.013 194.041 281.84 193.841 281.734 193.605C281.628 193.368 281.595 193.105 281.639 192.85C281.682 192.594 281.801 192.358 281.979 192.17L286.346 187.555C286.483 187.41 286.557 187.217 286.551 187.018C286.546 186.818 286.461 186.63 286.317 186.492L281.677 182.102C281.549 181.98 281.446 181.835 281.373 181.673C281.301 181.512 281.262 181.338 281.257 181.162C281.252 180.985 281.282 180.809 281.345 180.644C281.408 180.479 281.503 180.328 281.625 180.2C281.869 179.943 282.205 179.792 282.56 179.781C282.915 179.77 283.26 179.9 283.52 180.142L289.762 185.975C289.885 186.089 289.984 186.228 290.053 186.381C290.122 186.535 290.16 186.701 290.165 186.869C290.17 187.037 290.141 187.205 290.08 187.362C290.019 187.519 289.928 187.662 289.812 187.784L283.877 193.977C283.638 194.226 283.311 194.37 282.967 194.379Z" fill="#CCCCCC"/>
<path d="M278.198 187.663C278.056 187.794 277.871 187.869 277.677 187.874L263.124 188.275C263.018 188.278 262.913 188.261 262.815 188.223C262.716 188.186 262.626 188.129 262.55 188.057C262.473 187.984 262.411 187.897 262.368 187.801C262.325 187.705 262.302 187.601 262.299 187.496C262.296 187.39 262.314 187.285 262.351 187.187C262.389 187.088 262.446 186.998 262.518 186.922C262.591 186.845 262.678 186.783 262.774 186.741C262.87 186.698 262.974 186.674 263.08 186.671L277.633 186.27C277.796 186.266 277.957 186.311 278.094 186.4C278.231 186.49 278.337 186.619 278.398 186.77C278.46 186.922 278.474 187.088 278.438 187.248C278.402 187.407 278.318 187.552 278.198 187.663Z" fill="#CCCCCC"/>
<path d="M390.501 68.3881C390.242 68.3956 389.986 68.3261 389.767 68.1882C389.547 68.0504 389.373 67.8505 389.268 67.6139C389.162 67.3773 389.129 67.1146 389.172 66.8591C389.216 66.6037 389.334 66.3669 389.513 66.1788L393.88 61.5642C394.016 61.4193 394.09 61.2261 394.085 61.0269C394.079 60.8277 393.995 60.6388 393.85 60.5017L389.211 56.1109C389.082 55.9894 388.979 55.8439 388.907 55.6826C388.835 55.5213 388.795 55.3474 388.791 55.1709C388.786 54.9943 388.816 54.8184 388.879 54.6534C388.942 54.4884 389.037 54.3374 389.158 54.2091C389.403 53.9518 389.739 53.8014 390.094 53.7905C390.449 53.7796 390.794 53.9091 391.054 54.1509L397.296 59.9837C397.419 60.0987 397.518 60.237 397.587 60.3905C397.656 60.544 397.694 60.7098 397.699 60.8781C397.703 61.0464 397.674 61.214 397.614 61.3711C397.553 61.5282 397.462 61.6717 397.345 61.7933L391.411 67.9862C391.172 68.2349 390.845 68.3794 390.501 68.3881Z" fill="#CCCCCC"/>
<path d="M385.732 61.672C385.589 61.8033 385.404 61.8784 385.21 61.8834L370.657 62.2847C370.552 62.2877 370.447 62.2699 370.348 62.2324C370.25 62.1948 370.16 62.1382 370.083 62.0658C370.006 61.9933 369.945 61.9065 369.902 61.8102C369.859 61.714 369.835 61.6102 369.832 61.5048C369.829 61.3994 369.847 61.2944 369.885 61.1959C369.922 61.0974 369.979 61.0073 370.052 60.9308C370.124 60.8542 370.211 60.7927 370.307 60.7498C370.404 60.7069 370.508 60.6833 370.613 60.6806L385.166 60.2793C385.33 60.2748 385.49 60.3203 385.627 60.4097C385.764 60.4991 385.87 60.6281 385.932 60.7796C385.993 60.931 386.007 61.0976 385.971 61.2571C385.935 61.4166 385.852 61.5614 385.732 61.672Z" fill="#CCCCCC"/>
<path d="M375.6 477.385C371.836 485.201 365.705 491.525 358.788 496.869C336.181 501.73 313.215 504.73 290.119 505.841C288.996 505.897 287.872 505.953 286.74 505.993C280.73 506.242 274.673 506.368 268.572 506.371C257.963 506.371 247.48 505.993 237.123 505.239C236.728 502.857 236.674 500.43 236.962 498.033C238.11 488.652 245.228 480.033 254.464 478.043C263.701 476.053 274.229 481.566 277.03 490.586C278.579 473.188 280.353 455.068 289.605 440.254C297.975 426.844 312.476 417.246 328.197 415.529C337.436 414.567 346.757 416.274 355.056 420.448C355.819 420.833 356.573 421.235 357.319 421.652C362.3 424.475 366.694 428.226 370.264 432.702C380.07 445.109 382.469 463.149 375.6 477.385Z" fill="white"/>
<path d="M357.319 421.652C357.339 421.862 357.303 422.075 357.216 422.267C357.129 422.46 356.993 422.627 356.822 422.751C328.969 445.426 306.236 473.745 290.119 505.841C288.996 505.897 287.872 505.953 286.74 505.993C288.169 503.096 289.651 500.229 291.186 497.391C299.162 482.696 308.544 468.809 319.201 455.926C329.856 443.034 341.753 431.221 354.719 420.657C354.822 420.573 354.935 420.503 355.056 420.448C355.282 420.351 355.527 420.307 355.773 420.317C356.019 420.327 356.259 420.393 356.476 420.508C356.693 420.624 356.881 420.786 357.027 420.984C357.173 421.182 357.273 421.41 357.319 421.652Z" fill="#F2F2F2"/>
<path d="M496.966 304.095C496.966 304.095 493.291 308.212 492.585 308.477C490.643 329.606 477.45 334.405 466.857 334.405C459.241 334.405 452.966 331.925 453.175 331.243C464.474 331.508 465.436 326.87 465.436 326.87C458.872 325.899 457.556 321.613 457.556 321.613C458.145 321.924 458.827 322.006 459.473 321.845C460.118 321.683 460.681 321.289 461.055 320.739C453.969 318.893 454.932 311.976 454.932 311.976C456.194 312.889 457.67 313.463 459.217 313.645C458.431 312.682 451.802 304.737 455.79 300.62C456.023 301.246 462.925 310.643 474.457 309.961C474.183 308.62 474.21 307.234 474.535 305.904C474.861 304.574 475.477 303.333 476.34 302.27C477.202 301.206 478.289 300.347 479.523 299.754C480.757 299.161 482.107 298.848 483.476 298.839C489.607 298.839 490.924 302.346 490.924 302.346L495.305 299.713C495.217 299.713 494.775 304.095 492.585 304.97L496.966 304.095Z" fill="#012232"/>
<path fill-rule="evenodd" clip-rule="evenodd" d="M385.089 187.221C385.089 192.948 383.047 198.488 379.328 202.844C375.609 207.199 370.458 210.085 364.801 210.982V194.178H370.403L371.47 187.221H364.801C364.577 181.427 364.352 178.177 371.751 178.955V173.041C360.669 170.601 356.046 176.218 357.29 187.221H351.183V194.178H357.29V210.974C328.545 206.553 331.924 163.066 361.038 163.178C364.196 163.177 367.323 163.799 370.24 165.007C373.158 166.215 375.809 167.986 378.043 170.218C380.276 172.451 382.048 175.101 383.257 178.019C384.466 180.936 385.088 184.063 385.089 187.221Z" fill="#012232"/>
</g>
<defs>
<clipPath id="clip0_48_2">
<rect width="600" height="521.141" fill="white"/>
</clipPath>
</defs>
</svg>
