<svg width="32" height="32" viewBox="0 0 32 32" fill="none" xmlns="http://www.w3.org/2000/svg">
<g clip-path="url(#clip0_48_32)">
<path d="M14.9333 0V4.26667H17.0667V0H14.9333ZM7.1552 7.77813L3.9552 4.57813L2.4448 6.08853L5.6448 9.28853L7.1552 7.77813ZM26.3552 9.28853L29.5552 6.08853L28.0448 4.57813L24.8448 7.77813L26.3552 9.28853ZM16 6.4C13.9664 6.39966 12.0009 7.13309 10.4647 8.46557C8.92838 9.79804 7.92448 11.6401 7.63733 13.6533L7.616 13.8027C7.45383 14.9242 7.5195 16.067 7.80908 17.1626C8.09865 18.2582 8.60619 19.2842 9.30133 20.1792C10.1184 21.2352 10.6667 22.2443 10.6667 23.2555V26.6667C10.6667 26.9496 10.779 27.2209 10.9791 27.4209C11.1791 27.621 11.4504 27.7333 11.7333 27.7333H20.2667C20.5496 27.7333 20.8209 27.621 21.0209 27.4209C21.221 27.2209 21.3333 26.9496 21.3333 26.6667V23.2555C21.3333 22.2443 21.8816 21.2352 22.6987 20.1792C24.0427 18.4427 24.7211 16.1792 24.384 13.8005L24.3627 13.6512C24.0751 11.6383 23.0709 9.79681 21.5347 8.46476C19.9985 7.13272 18.0333 6.39959 16 6.4ZM0 17.0667H4.26667V14.9333H0V17.0667ZM27.7333 17.0667H32V14.9333H27.7333V17.0667ZM12.8 32H19.2V29.8667H12.8V32Z" fill="#EBF8FF"/>
</g>
<defs>
<clipPath id="clip0_48_32">
<rect width="32" height="32" fill="white"/>
</clipPath>
</defs>
</svg>
