<svg width="32" height="32" viewBox="0 0 32 32" fill="none" xmlns="http://www.w3.org/2000/svg">
<path d="M27.6133 9.38667C27.16 9.84 26.72 10.28 26.7067 10.72C26.6667 11.1467 27.12 11.5867 27.5467 12C28.1867 12.6667 28.8133 13.2667 28.7867 13.92C28.76 14.5733 28.08 15.2533 27.4 15.92L21.8933 21.44L20 19.5467L25.6667 13.8933L24.3867 12.6133L22.4933 14.4933L17.4933 9.49333L22.6133 4.38667C23.1333 3.86667 24 3.86667 24.4933 4.38667L27.6133 7.50667C28.1333 8 28.1333 8.86667 27.6133 9.38667ZM4 23L16.7467 10.24L21.7467 15.24L9 28H4V23Z" fill="#EBF8FF"/>
</svg>
